<svg id="visual" viewBox="0 0 900 600" width="900" height="600" xmlns="http://www.w3.org/2000/svg" xmlns:xlink="http://www.w3.org/1999/xlink" version="1.1"><path d="M0 85L13.7 85C27.3 85 54.7 85 82 86C109.3 87 136.7 89 163.8 83C191 77 218 63 245.2 63C272.3 63 299.7 77 327 84C354.3 91 381.7 91 409 84C436.3 77 463.7 63 491 59C518.3 55 545.7 61 573 63C600.3 65 627.7 63 654.8 60C682 57 709 53 736.2 52C763.3 51 790.7 53 818 58C845.3 63 872.7 71 886.3 75L900 79L900 0L886.3 0C872.7 0 845.3 0 818 0C790.7 0 763.3 0 736.2 0C709 0 682 0 654.8 0C627.7 0 600.3 0 573 0C545.7 0 518.3 0 491 0C463.7 0 436.3 0 409 0C381.7 0 354.3 0 327 0C299.7 0 272.3 0 245.2 0C218 0 191 0 163.8 0C136.7 0 109.3 0 82 0C54.7 0 27.3 0 13.7 0L0 0Z" fill="#6198ff"></path><path d="M0 175L13.7 168C27.3 161 54.7 147 82 148C109.3 149 136.7 165 163.8 160C191 155 218 129 245.2 127C272.3 125 299.7 147 327 157C354.3 167 381.7 165 409 167C436.3 169 463.7 175 491 175C518.3 175 545.7 169 573 159C600.3 149 627.7 135 654.8 136C682 137 709 153 736.2 162C763.3 171 790.7 173 818 165C845.3 157 872.7 139 886.3 130L900 121L900 77L886.3 73C872.7 69 845.3 61 818 56C790.7 51 763.3 49 736.2 50C709 51 682 55 654.8 58C627.7 61 600.3 63 573 61C545.7 59 518.3 53 491 57C463.7 61 436.3 75 409 82C381.7 89 354.3 89 327 82C299.7 75 272.3 61 245.2 61C218 61 191 75 163.8 81C136.7 87 109.3 85 82 84C54.7 83 27.3 83 13.7 83L0 83Z" fill="#3c80ff"></path><path d="M0 265L13.7 274C27.3 283 54.7 301 82 318C109.3 335 136.7 351 163.8 348C191 345 218 323 245.2 320C272.3 317 299.7 333 327 325C354.3 317 381.7 285 409 284C436.3 283 463.7 313 491 322C518.3 331 545.7 319 573 309C600.3 299 627.7 291 654.8 293C682 295 709 307 736.2 313C763.3 319 790.7 319 818 313C845.3 307 872.7 295 886.3 289L900 283L900 119L886.3 128C872.7 137 845.3 155 818 163C790.7 171 763.3 169 736.2 160C709 151 682 135 654.8 134C627.7 133 600.3 147 573 157C545.7 167 518.3 173 491 173C463.7 173 436.3 167 409 165C381.7 163 354.3 165 327 155C299.7 145 272.3 123 245.2 125C218 127 191 153 163.8 158C136.7 163 109.3 147 82 146C54.7 145 27.3 159 13.7 166L0 173Z" fill="#0066ff"></path><path d="M0 487L13.7 486C27.3 485 54.7 483 82 480C109.3 477 136.7 473 163.8 473C191 473 218 477 245.2 475C272.3 473 299.7 465 327 472C354.3 479 381.7 501 409 512C436.3 523 463.7 523 491 518C518.3 513 545.7 503 573 491C600.3 479 627.7 465 654.8 461C682 457 709 463 736.2 473C763.3 483 790.7 497 818 509C845.3 521 872.7 531 886.3 536L900 541L900 281L886.3 287C872.7 293 845.3 305 818 311C790.7 317 763.3 317 736.2 311C709 305 682 293 654.8 291C627.7 289 600.3 297 573 307C545.7 317 518.3 329 491 320C463.7 311 436.3 281 409 282C381.7 283 354.3 315 327 323C299.7 331 272.3 315 245.2 318C218 321 191 343 163.8 346C136.7 349 109.3 333 82 316C54.7 299 27.3 281 13.7 272L0 263Z" fill="#0059dd"></path><path d="M0 601L13.7 601C27.3 601 54.7 601 82 601C109.3 601 136.7 601 163.8 601C191 601 218 601 245.2 601C272.3 601 299.7 601 327 601C354.3 601 381.7 601 409 601C436.3 601 463.7 601 491 601C518.3 601 545.7 601 573 601C600.3 601 627.7 601 654.8 601C682 601 709 601 736.2 601C763.3 601 790.7 601 818 601C845.3 601 872.7 601 886.3 601L900 601L900 539L886.3 534C872.7 529 845.3 519 818 507C790.7 495 763.3 481 736.2 471C709 461 682 455 654.8 459C627.7 463 600.3 477 573 489C545.7 501 518.3 511 491 516C463.7 521 436.3 521 409 510C381.7 499 354.3 477 327 470C299.7 463 272.3 471 245.2 473C218 475 191 471 163.8 471C136.7 471 109.3 475 82 478C54.7 481 27.3 483 13.7 484L0 485Z" fill="#004cbb"></path></svg>